<?xml version="1.0" encoding="UTF-8"?>
<svg id="DESIGN" xmlns="http://www.w3.org/2000/svg" viewBox="0 0 6010.93 2000">
  <defs>
    <style>
      .cls-1 {
        fill: none;
        stroke: #fff;
        stroke-miterlimit: 10;
        stroke-width: 5px;
      }
    </style>
  </defs>
  <path class="cls-1" d="M.04,1992.22c428.48,.22,856.96-.26,1285.44-.13,373.07,.11,746.15,.14,1119.22,.24,352.82,.09,705.64-.12,1058.46-.11,368.28,0,736.56,0,1104.84,.02,419.88,.03,839.76-.03,1259.65-.02,57.46,0,114.93,0,172.39,0"/>
  <path class="cls-1" d="M.04,1977.92c425.57,2.16,851.14-4.29,1276.72-3.54,376.11,.66,752.21,2,1128.32,3.79,352.99,1.68,705.98-.46,1058.97-.29,365.03,.18,730.06-.02,1095.08,.2,423.64,.26,847.28-.51,1270.92-.42,56.7,.01,113.4,.04,170.1,.09"/>
  <path class="cls-1" d="M.04,1963.61c419.96,3.3,839.86-10.31,1259.81-10.14,380.46,.16,760.84,4.34,1141.28,8.84,353.37,4.18,706.73,.9,1060.11,1.35,359.25,.46,718.49,.1,1077.73,.41,430.76,.37,861.52-1.24,1292.29-1.18,56.4,0,112.79,.05,169.19,.12"/>
  <path class="cls-1" d="M.04,1949.3c412.04,3.75,823.77-18.1,1235.77-19.52,385.99-1.33,771.72,7.16,1157.6,15.21,353.94,7.39,707.82,3.74,1061.81,4.58,351.26,.83,702.5,.33,1053.76,.63,440.82,.38,881.63-2.16,1322.44-2.25,56.5-.01,112.99,.02,169.49,.11"/>
  <path class="cls-1" d="M.04,1935c402.19,3.65,803.58-27.42,1205.64-31.28,392.52-3.77,784.55,10.43,1176.8,22.7,354.69,11.1,709.18,7.82,1063.97,9.16,341.39,1.29,682.74,.65,1024.13,.87,453.37,.28,906.73-3.25,1360.1-3.59,56.94-.04,113.88-.03,170.81,.07"/>
  <path class="cls-1" d="M.04,1920.69c390.83,3.13,779.94-38.03,1170.47-45,399.84-7.14,799.05,14.14,1198.37,31.12,355.6,15.13,710.72,12.89,1066.53,14.86,329.96,1.83,659.86,1.04,989.82,1.12,468,.11,935.98-4.48,1403.98-5.16,57.66-.08,115.33-.09,172.99-.01"/>
  <path class="cls-1" d="M.04,1906.38c378.38,2.3,753.52-49.69,1131.3-60.29,407.71-11.44,814.98,18.26,1221.82,40.28,193.01,10.45,386.28,20.09,579.62,20.36,163.26,.24,326.51-.17,489.77,1.08,317.3,2.43,634.5,1.48,951.81,1.38,484.26-.15,968.51-5.82,1452.77-6.9,58.62-.13,117.23-.18,175.85-.11"/>
  <path class="cls-1" d="M.04,1892.08c365.26,1.28,724.98-62.15,1089.2-76.72,415.85-16.63,832.1,22.75,1246.67,49.97,198.4,13.03,397.14,25.31,596.02,26.77,158.82,1.16,317.64,.31,476.46,1.92,303.73,3.09,607.32,1.92,911.07,1.65,501.74-.46,1003.45-7.23,1505.18-8.76,59.73-.18,119.46-.27,179.2-.23"/>
  <path class="cls-1" d="M.04,1877.77c188.15,.09,374.64-16.81,561-41.48,161.05-21.31,321.83-43.72,484.19-52.41,423.95-22.69,850.21,27.56,1272.41,60.02,204.07,15.69,408.58,30.71,613.31,33.51,154.12,2.11,308.28,.81,462.42,2.84,289.59,3.8,578.95,2.37,868.56,1.92,519.99-.82,1039.95-8.69,1559.94-10.71,60.96-.24,121.91-.37,182.87-.36"/>
  <path class="cls-1" d="M.04,1863.46c182.06-.5,361.65-19.53,541.07-49.26,152.59-25.28,304.76-51.58,459.27-62.14,198.87-13.58,398.34-3.68,596.92,10.21,234.17,16.39,467.8,39.54,701.63,60,209.88,18.36,420.27,36.19,630.99,40.41,149.3,2.99,298.71,1.32,448.04,3.79,275.18,4.56,550.05,2.8,825.27,2.19,538.6-1.2,1077.15-10.16,1615.73-12.7,62.23-.29,124.45-.48,186.68-.5"/>
  <path class="cls-1" d="M.04,1849.16c176.15-1.06,348.83-21.94,521.24-57,144.14-29.31,287.61-59.48,434.46-71.82,199.82-16.79,400.55-4.15,600.05,11.43,241.88,18.9,483.09,45.43,724.54,68.94,215.64,21,431.89,41.6,648.58,47.28,144.51,3.79,289.19,1.77,433.74,4.73,260.84,5.35,521.27,3.21,782.17,2.46,557.12-1.59,1114.18-11.61,1671.28-14.68,63.49-.35,126.97-.58,190.46-.63"/>
  <path class="cls-1" d="M.04,1834.85c170.56-1.54,336.52-23.92,501.96-64.52,135.87-33.34,270.75-67.26,410.33-81.23,200.66-20.09,402.84-4.52,603.15,12.65,249.4,21.37,498,51.18,746.89,77.66,221.21,23.54,443.12,46.85,665.59,53.91,139.88,4.44,279.99,2.13,419.92,5.62,246.88,6.16,493.26,3.58,740.22,2.73,575.12-1.96,1150.18-13.03,1725.29-16.6,64.67-.4,129.35-.68,194.03-.76"/>
  <path class="cls-1" d="M.04,1820.54c165.42-1.92,325.07-25.41,483.72-71.64,127.98-37.29,254.55-74.73,387.48-90.15,201.37-23.37,405.2-4.77,606.21,13.84,256.58,23.76,512.22,56.66,768.2,85.98,226.41,25.93,453.64,51.82,681.52,60.13,135.56,4.95,271.38,2.37,407.01,6.43,89.07,2.66,177.95,7.04,267.08,6.48,144.45-.9,288.88-2.92,433.33-3.48,592.19-2.31,1184.3-14.38,1776.47-18.42,65.73-.45,131.47-.77,197.21-.87"/>
  <path class="cls-1" d="M.04,1806.24c161.93-2.17,316.56-26.85,469.71-79.1,119.16-40.66,236.56-80.6,362.01-97.19,203.48-26.92,410.87-5.04,614,15.09,262.78,26.04,524.5,61.74,786.61,93.61,230.58,28.03,462.08,56.22,694.33,65.53,131.5,5.27,263.26,2.45,394.82,7.08,81.76,2.88,163.26,7.68,245.11,7.05,138.47-1.06,276.91-3.19,415.39-3.76,609.23-2.53,1218.38-15.64,1827.6-20.12,66.47-.49,132.94-.84,199.4-.96"/>
  <path class="cls-1" d="M.04,1791.93c158.01-2.24,307.66-27.28,454.77-84.94,112.7-44.17,223.04-86.83,343.64-104.37,203.93-29.65,413.36-5.04,616.93,16.23,268.76,28.08,536.37,66.34,804.39,100.55,234.56,29.94,470.17,60.27,706.6,70.32,128.22,5.45,256.69,2.34,384.96,7.57,74.44,3.04,148.52,8.24,223.07,7.58,134.92-1.2,269.8-3.45,404.74-4.04,623.13-2.74,1246.16-16.76,1869.27-21.6,67.09-.52,134.18-.9,201.27-1.03"/>
  <path class="cls-1" d="M.04,1777.63c154.84-2.12,300.5-27.21,442.29-89.8,107.22-47.33,211.41-92.22,328.22-110.38,204.33-31.77,415.82-4.9,619.77,17.34,273.92,29.86,546.59,70.31,819.71,106.53,237.69,31.52,476.58,63.71,716.33,74.12,125.65,5.45,251.54,2.03,377.22,7.85,68.06,3.15,135.68,8.75,203.88,8.06,132.12-1.34,264.18-3.7,396.32-4.3,634.78-2.85,1269.46-17.73,1904.22-22.85,67.41-.54,134.81-.94,202.22-1.06"/>
  <path class="cls-1" d="M.04,1763.32c152.52-1.78,295.29-26.68,432.77-93.52,102.93-50.04,202.13-96.59,316.34-115.02,204.76-33.05,418.17-4.63,622.48,18.4,278.09,31.34,554.85,73.53,832.09,111.36,239.81,32.72,480.98,66.44,723.02,76.73,123.93,5.27,248.07,1.5,372.01,7.87,62.82,3.23,125.1,9.2,188.08,8.5,130.21-1.45,260.33-3.94,390.56-4.51,643.76-2.85,1287.41-18.53,1931.14-23.81,67.36-.55,134.71-.95,202.07-1.06"/>
  <path class="cls-1" d="M.04,1749.01c151.15-1.21,292.17-25.77,426.66-95.9,100.08-52.19,195.73-99.76,308.56-118.06,205.29-33.28,420.33-4.22,625.06,19.4,281.1,32.44,560.83,75.88,841.06,114.86,240.74,33.49,483.07,68.37,726.2,77.97,123.2,4.87,246.56,.77,369.74,7.59,58.89,3.26,117.14,9.58,176.21,8.87,129.32-1.56,258.55-4.15,387.89-4.69,649.63-2.69,1299.14-19.11,1948.75-24.43,66.88-.55,133.77-.94,200.65-1.01"/>
  <path class="cls-1" d="M.04,1734.71c151.15-.8,291.91-25.64,425.98-96.55,99.72-52.75,194.87-100.77,307.72-118.93,205.15-33,420.58-3.79,625.11,19.98,281.56,32.72,561.72,76.47,842.41,115.73,240.84,33.69,483.36,68.86,726.64,78.07,123.22,4.66,246.65,.33,369.86,6.73,58.16,3.02,115.47,9.8,173.82,9.7,129.17-.21,258.32-4.01,387.5-4.33,650.53-1.59,1300.93-20.28,1951.43-25.15,66.79-.5,133.58-.81,200.38-.71"/>
  <path class="cls-1" d="M.04,1720.4c154-1.23,297.53-28.24,436.21-95.52,104.37-50.64,205.28-98.78,321.02-117.59,203.4-33.07,416.72-3.82,619.61,19.31,276.91,31.56,552.47,74.05,828.53,112.14,240,33.11,481.39,67.01,723.68,77.3,124.35,5.28,248.84,.38,373.21,3.99,63.34,1.84,126.31,9.82,189.66,13.09,129.4,6.68,258.52,.65,387.97,.75,642.4,.47,1284.6-24.43,1926.96-28.74,68-.46,136.01-.61,204.01-.18"/>
  <path class="cls-1" d="M.04,1706.09c159.27-1.53,308.41-30.86,454.54-93.69,112.35-48.3,222.26-96,344.03-115.28,202.09-32.01,412.74-4.16,614.43,18.17,270.01,29.89,538.73,70.49,807.92,106.8,236.83,31.94,474.82,64.12,713.76,74.73,127.65,5.67,254.9-.67,382.52-.35,70.63,.18,141.95,9.72,212.01,18.32,131.06,16.08,260.26,10.54,391.93,10.8,628.3,1.27,1256.27-30.19,1884.52-34.95,68.4-.52,136.8-.62,205.19,0"/>
  <path class="cls-1" d="M.04,1691.79c166.65-1.72,324.16-33.11,479.91-91.14,123.16-45.89,244.75-92.57,375.49-112.13,201.08-30.08,408.77-4.73,609.5,16.62,261.15,27.79,521.08,65.93,781.46,99.94,231.64,30.26,464.26,60.27,697.81,70.59,132.88,5.87,264.34-2.9,397.02-6.09,80.35-1.93,161.36,9.29,240.01,25.15,50.12,10.11,100.28,19.25,151.28,23.66,82.41,7.12,165.11,1.38,247.66,1.52,609.04,1.08,1217.52-37.38,1826.47-43.46,68.08-.68,136.16-.84,204.25-.14"/>
  <path class="cls-1" d="M.04,1677.48c175.94-1.78,344.16-34.77,511.26-88,136.36-43.43,271.77-88.65,414.1-108.26,200.18-27.57,404.92-5.47,604.81,14.73,250.61,25.33,500.12,60.52,750.03,91.8,224.73,28.13,450.31,55.59,676.74,65.13,139.69,5.89,276.68-6.28,415.91-13.02,92.54-4.48,183.77,8.28,272.8,33.35,52.59,14.81,105.15,29.17,159.35,36.88,82.71,11.76,165.99,6.34,249.19,6.36,585.42,.12,1169.9-45.83,1755.18-53.9,67.16-.93,134.33-1.22,201.49-.55"/>
  <path class="cls-1" d="M.04,1663.17c186.91-1.73,367.68-35.71,547.52-84.36,151.49-40.98,302.44-84.39,458.61-103.8,199.25-24.76,401.29-6.27,600.3,12.56,238.71,22.59,476.44,54.42,714.53,82.6,216.42,25.61,433.56,50.2,651.46,58.58,82.14,3.16,163.86,2.51,245.84-3.78,64.26-4.93,128.29-12.68,192.58-17.14,106.92-7.42,208.64,6.62,309.52,42.67,55.57,19.86,110.91,40.07,168.91,51.82,83.17,16.86,167.02,12.7,251.34,12.48,558.23-1.41,1114.99-55.35,1673-65.93,65.74-1.25,131.49-1.74,197.25-1.17"/>
  <path class="cls-1" d="M.04,1648.87c199.28-1.56,393.96-35.93,587.62-80.34,168.12-38.55,335.95-79.91,507.71-98.87,198.2-21.88,397.91-7.07,595.93,10.17,225.74,19.66,450.64,47.79,675.84,72.57,207.01,22.78,414.63,44.23,622.88,51.18,84.36,2.82,167.98,1.28,252.03-6.71,70.67-6.71,141-16.71,211.72-22.88,60.75-5.3,121.91-7.43,182.25,2.89,58.7,10.04,112.29,26.6,167.08,49.97,59,25.16,117.43,51.66,179.63,68.11,83.8,22.16,168.03,20.16,253.99,19.61,528.3-3.33,1054.34-65.77,1582.31-79.22,63.94-1.63,127.89-2.37,191.85-1.96"/>
  <path class="cls-1" d="M.04,1634.56c404.29-2.46,790.62-130.85,1190.64-169.65,197-19.11,394.78-7.8,591.67,7.61,211.99,16.6,423.29,40.77,634.84,61.95,196.82,19.7,394.12,37.81,591.93,43.16,86.83,2.35,172.58-.29,258.93-9.92,77.52-8.64,154.6-20.97,232.2-28.89,68.38-6.98,138.02-10.79,206.14,.66,65.82,11.07,125.44,33.82,185.23,63.03,62.77,30.67,124.54,63.71,191.21,85.38,84.52,27.49,168.98,28.44,256.99,27.48,496.43-5.46,989.51-76.89,1485.46-93.4,61.85-2.06,123.72-3.09,185.6-2.87"/>
  <path class="cls-1" d="M.04,1620.25c435.3-1.82,857.7-123.17,1289.71-159.72,392.35-33.19,789.37,21.44,1179.89,55.92,186.13,16.44,372.64,31.08,559.52,34.76,89.45,1.77,177.48-2.1,266.27-13.31,84.64-10.68,168.74-25.37,253.5-35.06,76.37-8.72,154.57-14.05,230.86-1.74,73.05,11.79,139.32,41.6,203.92,76.64,66.83,36.25,132.07,75.97,203.3,103.25,85.23,32.65,169.86,37.27,260.21,35.79,463.45-7.62,922.06-88.52,1384.83-108.14,59.59-2.53,119.2-3.87,178.84-3.86"/>
  <path class="cls-1" d="M.04,1605.95c467.32-1.05,925.42-115.51,1390.19-149.64,377.34-27.71,756.65,14.11,1132.77,42.1,175.26,13.04,350.78,24.17,526.55,26.22,92.11,1.07,182.5-4.06,273.77-16.76,91.85-12.78,183.08-29.85,275.12-41.29,84.46-10.5,171.33-17.36,255.9-4.2,80.28,12.49,153.52,49.65,222.8,90.46,71.04,41.84,139.8,88.23,215.59,121.35,85.85,37.52,170.71,46.35,263.51,44.26,430.21-9.67,853.51-100.47,1282.77-123.09,57.26-3.02,114.55-4.66,171.89-4.88"/>
  <path class="cls-1" d="M.04,1591.64c499.42-.22,992.3-107.98,1489.74-139.66,361.91-23.05,724.73,7.36,1085.98,28.4,164.49,9.58,329.15,17.24,493.95,17.77,94.73,.31,187.45-6.05,281.16-20.16,98.99-14.91,197.27-34.3,296.52-47.48,92.47-12.28,187.95-20.64,280.73-6.62,87.43,13.22,167.71,57.69,241.56,104.14,75.29,47.36,147.53,100.28,227.75,139.3,86.3,41.98,171.53,55.38,266.76,52.63,397.55-11.47,785.39-112.53,1181.65-137.9,54.96-3.52,109.99-5.46,165.06-5.88"/>
  <path class="cls-1" d="M.04,1577.33c270.17,.31,540.06-29.98,808.42-58.2,258.81-27.21,517.66-57.42,777.59-71.81,346.56-19.18,694,1.4,1040.37,15.1,154.14,6.1,308.35,10.45,462.62,9.66,97.21-.5,192.14-7.99,288.17-23.42,105.88-17.01,210.99-38.68,317.21-53.53,100.49-14.05,203.84-23.3,304.83-8.89,94.26,13.45,181.81,65.6,259.84,117.34,79.46,52.68,155.05,111.88,239.46,156.72,41.37,21.98,84.93,40.29,130.62,51.11,46.27,10.97,91.99,11.15,139.2,9.49,366.37-12.89,719.21-124.49,1083.83-152.22,52.82-4.02,105.72-6.21,158.68-6.82"/>
  <path class="cls-1" d="M.04,1563.03c283.54,.67,567.11-28.25,849.17-54.11,275.51-25.26,551.07-53.42,827.49-66.8,331.82-16.06,664.84-3.59,996.79,2.51,144.48,2.65,288.99,3.95,433.49,2.11,99.49-1.27,196.38-9.77,294.54-26.42,112.35-19.05,223.87-42.91,336.67-59.33,107.94-15.71,219.06-26.13,327.69-10.92,100.94,14.14,195.06,72.82,277.32,129.7,83.42,57.69,162.12,122.83,250.39,173.25,42.16,24.08,86.7,44.6,133.77,56.98,46.19,12.14,91.41,12.88,138.77,10.93,337.55-13.87,656.47-136.11,991.68-165.72,50.93-4.5,101.97-6.89,153.08-7.64"/>
  <path class="cls-1" d="M.04,1548.72c295.76,.93,591.76-26.61,886.31-50.39,290.75-23.47,581.55-49.75,873.04-62.24,318.17-13.63,637.64-7.48,956.09-9.1,135.83-.69,271.65-2.06,407.46-4.64,101.45-1.93,199.99-11.29,299.98-29.04,118.24-20.99,235.59-46.92,354.38-64.78,114.82-17.27,233.14-28.73,348.78-12.59,107.29,14.98,207.31,79.12,293.66,140.89,87.05,62.27,168.51,132.9,260.21,188.5,42.78,25.94,88.1,48.47,136.37,62.2,46.1,13.11,90.96,14.25,138.44,12.07,152.19-6.99,300.07-37.75,446.64-77.84,152.17-41.62,303.36-84.43,460.92-100.2,49.4-4.94,98.95-7.47,148.58-8.3"/>
  <path class="cls-1" d="M.04,1534.41c306.47,1.05,613.29-25.16,918.75-47.13,304.11-21.88,608.25-46.45,912.97-58.23,186.97-7.23,374.3-6.34,561.39-9.58,119.27-2.07,238.48-6.26,357.71-9.86,128.47-3.88,256.95-7.38,385.45-10.34,103.04-2.38,202.78-12.44,304.23-31.19,123.37-22.8,245.8-50.63,369.83-69.78,120.93-18.67,245.72-31.04,367.59-13.8,113.22,16.02,218.25,84.22,308.52,150.55,90.24,66.3,174.01,141.83,268.61,202.1,43.18,27.51,89.04,51.76,138.24,66.57,46.01,13.85,90.69,15.16,138.24,12.82,142.53-7.01,279.37-38.21,414.57-82.54,137.95-45.23,274.16-90.29,419.27-106.3,48.34-5.33,96.87-7.91,145.49-8.75"/>
  <path class="cls-1" d="M.04,1520.11c315.3,.96,630.99-23.98,945.44-44.46,315.15-20.53,630.34-43.61,946-54.92,185.44-6.64,371.04-5.04,556.52-11.2,110.16-3.66,220.12-10.9,330.16-16.99,122.71-6.8,245.5-11.8,368.37-14.77,104.17-2.51,204.56-13.12,307.02-32.75,127.56-24.44,254.15-53.97,382.5-74.22,126.12-19.9,256.48-32.99,383.58-14.45,118.61,17.3,227.58,87.82,321.57,158.33,92.86,69.67,178.38,149.41,275.25,213.68,43.3,28.73,89.41,54.36,139.21,69.91,45.9,14.33,90.65,15.48,138.2,13.09,135-6.78,262.94-37.62,388.62-86.34,125.94-48.82,249.02-95.49,384.26-111.43,47.87-5.64,95.97-8.17,144.14-8.95"/>
  <path class="cls-1" d="M.04,1505.8c321.89,.6,644.16-23.16,965.3-42.47,323.47-19.45,646.96-41.29,970.85-52.43,183.78-6.32,367.67-3.69,551.39-12.43,102.96-4.9,205.53-14.6,308.27-22.66,118.87-9.33,237.93-15.1,357.14-17.68,104.76-2.26,205.14-13.24,308.08-33.62,130.66-25.87,260.31-56.88,391.89-78,130.2-20.9,265.07-34.51,396.26-14.43,123.35,18.88,235,89.62,332.48,163.89,94.81,72.24,181.4,155.38,279.82,222.85,43.09,29.54,89.1,56.16,139.12,72.03,45.77,14.51,90.9,15.09,138.35,12.79,129.83-6.3,251.56-35.94,369.92-89.08,116.55-52.33,228.86-99.81,357.12-115.4,48.09-5.84,96.45-8.22,144.86-8.84"/>
  <path class="cls-1" d="M.04,1491.5c325.88-.08,652.07-22.79,977.28-41.27,328.63-18.67,657.27-39.53,986.25-50.88,181.95-6.28,364.17-2.46,545.96-13.2,97.95-5.79,195.31-17.24,292.94-26.64,117.28-11.29,234.87-17.05,352.67-18.83,46.31-.7,92.42-.33,138.54-5.41,56.66-6.24,112.78-16.88,168.6-28.28,132.49-27.07,263.93-59.28,397.47-81.02,133.01-21.66,271.16-35.54,405.09-13.64,127.29,20.82,240.21,89.35,340.9,166.89,95.96,73.89,182.83,159.51,281.99,229.25,42.48,29.88,88.01,57.05,137.81,72.73,45.6,14.35,91.48,13.91,138.71,11.84,127.18-5.57,245.93-33.27,359.6-90.59,45.63-23.01,90.4-47.72,137.73-67.17,64.43-26.48,132.27-42.56,201.35-50.87,49.11-5.91,98.52-8.02,147.96-8.39"/>
  <path class="cls-1" d="M.04,1476.86c326.12-.62,652.56-22.86,978.05-40.79,328.98-18.12,657.97-37.96,987.26-49.74,181.67-6.5,363.73-2.85,545.21-14,97.42-5.99,194.22-17.74,291.3-27.41,117.24-11.67,234.83-17.29,352.63-18.74,46.18-.57,92.11-.09,138.09-5.17,56.33-6.22,112.15-16.8,167.65-28.1,132.69-27.02,264.37-59.03,398.11-80.68,133.77-21.66,272.59-35.59,407.32-14.13,127.98,20.38,241.78,88.69,343.23,166.24,96.47,73.75,183.73,159.38,282.99,229.5,42.21,29.82,87.41,57.11,136.9,72.93,45.49,14.54,91.32,13.99,138.5,12.02,126.92-5.3,245.55-32.15,358.42-90.72,44.6-23.15,88.3-48.05,134.72-67.51,64.07-26.87,131.79-42.77,200.69-50.95,49.72-5.9,99.73-7.9,149.76-8.19"/>
  <path class="cls-1" d="M.04,1460.02c323.2-.69,646.87-22.87,969.51-39.84,325.25-17.11,650.52-35.29,976.02-46.84,182.96-6.49,366.25-4.21,549.06-14.47,100.66-5.65,200.8-16.67,301.17-25.84,117.99-10.79,236.23-16.53,354.69-18.29,103.88-1.54,203.17-12.63,305.27-32.52,132.02-25.72,263.11-56.15,396.04-77.03,133.24-20.93,270.86-34.68,405.21-15.95,126.14,17.59,241.25,87.48,341.9,161.87,97.14,71.79,185.69,154.98,285.26,223.49,42.71,29.39,88.16,56.32,137.64,72.58,45.54,14.96,90.5,15.3,137.87,13.23,127.66-5.58,247.07-33,361.45-90.02,45.82-22.84,90.8-47.38,138.3-66.68,64.82-26.33,133-42.28,202.39-50.55,49.41-5.89,99.12-8,148.85-8.4"/>
  <path class="cls-1" d="M.04,1440.95c318.39-.76,637.42-22.75,955.33-38.26,319.22-15.57,638.48-31.6,957.91-42.29,184.12-6.16,368.5-4.97,552.51-14.05,105.2-5.19,210-15.18,314.97-23.6,120.06-9.63,240.31-15.25,360.75-17.15,103.34-1.64,202.72-12.35,304.46-31.12,130.96-24.16,261.1-52.78,392.83-72.65,132.35-19.96,268.44-33.3,401.95-17.03,124.37,15.16,240.37,84.04,340.99,154.81,97.94,68.88,187.98,148.72,288.05,214.59,43.32,28.52,89.14,54.61,138.65,70.75,45.67,14.89,90.15,15.8,137.64,13.69,129.1-5.73,250.17-33.55,366.94-88.74,47.47-22.44,94.18-46.51,143.18-65.54,66.06-25.65,135.16-41.55,205.48-49.83,49.35-5.81,98.98-7.99,148.64-8.45"/>
  <path class="cls-1" d="M.04,1419.94c142.34-.37,284.58-8.42,426.75-14.42,169.85-7.17,339.69-14.29,509.53-21.69,311.22-13.57,622.47-27,933.85-36.32,185.17-5.54,370.51-5.14,555.61-12.85,110.88-4.62,221.47-13.34,332.18-20.79,123.29-8.29,246.7-13.51,370.26-15.42,102.71-1.59,202.04-11.67,303.34-29.18,129.58-22.4,258.42-48.99,388.63-67.64,131.14-18.78,265.42-31.5,397.68-17.47,122.76,13.02,239.18,78.7,340.45,145.44,98.86,65.15,190.57,140.85,291.29,203.19,44.03,27.25,90.3,52.09,139.88,67.64,45.84,14.38,90.23,15.58,137.78,13.49,131.17-5.77,254.66-33.81,374.56-86.97,49.5-21.94,98.31-45.47,149.18-64.15,67.71-24.87,138.13-40.62,209.76-48.84,49.49-5.68,99.24-7.87,149.04-8.36"/>
  <path class="cls-1" d="M.04,1397.3c139.98-.4,279.83-9.07,419.65-14.9,164.46-6.86,328.98-12.52,493.47-18.61,301.54-11.17,603.12-21.63,904.77-29.16,186.12-4.65,372.34-4.78,558.42-11,117.52-3.93,234.85-11.21,352.26-17.48,127.48-6.82,255.02-11.41,382.67-13.18,231.85-3.22,456.56-58.08,685.57-88.87,129.65-17.43,261.88-29.37,392.58-17.39,121.33,11.12,237.75,71.82,340.22,134.1,99.89,60.71,193.41,131.6,294.92,189.67,44.81,25.64,91.63,48.87,141.31,63.46,46.04,13.52,90.65,14.76,138.21,12.73,133.8-5.71,260.36-33.81,383.97-84.79,121.58-50.15,239.15-95.57,371.16-110.15,49.81-5.5,99.85-7.67,149.94-8.15"/>
  <path class="cls-1" d="M.04,1373.33c137.17-.43,274.16-9.71,411.17-15.37,158.41-6.54,316.97-10.55,475.45-15.16,290.5-8.44,581.04-15.62,871.6-21.02,312.11-5.81,623.73-10.01,935.66-22.41,132.44-5.26,264.92-9.02,397.46-10.53,228.92-2.61,451.78-51.92,678.28-80.12,127.93-15.93,257.92-26.95,386.79-16.86,120.12,9.4,236.15,63.77,340.24,121.18,101.01,55.71,196.46,121.21,298.85,174.44,45.65,23.74,93.06,45.09,142.9,58.4,46.28,12.36,91.35,13.46,138.89,11.53,136.88-5.56,267.08-33.54,394.85-82.26,126.38-48.19,249.32-92.66,384.98-106.94,50.27-5.29,100.74-7.4,151.27-7.84"/>
  <path class="cls-1" d="M.04,1348.33c134.29-.46,268.34-10.4,402.47-15.88,149.16-6.09,298.54-8.29,447.79-11.23,281.77-5.56,563.57-9.23,845.38-12.3,319.65-3.49,639.06-7.06,958.62-15.55,138.24-3.67,276.49-6.44,414.77-7.59,226.28-1.89,447.5-45.49,671.77-70.88,126.14-14.28,254.13-24.52,381.06-15.71,116.99,8.12,230.24,53.9,334.52,104.9,104.57,51.14,204.03,112.34,309.76,161.12,46.59,21.5,94.71,40.53,144.82,52.04,46.55,10.69,92.32,11.11,139.78,9.22,139-5.54,272.06-33.13,403.08-79.08,131.84-46.24,260.53-89.76,400.57-103.71,50.92-5.07,102.02-7.11,153.18-7.48"/>
  <path class="cls-1" d="M.04,1322.61c130.86-.48,261.44-11.05,392.14-16.35,142.39-5.77,285.08-6.11,427.57-7.36,268.78-2.35,537.57-2.22,806.36-2.77,328.84-.67,657.61-3.58,986.42-8.28,144.24-2.06,288.48-3.69,432.74-4.4,222.99-1.09,441.9-38.59,663.3-61.04,124.13-12.59,249.58-21.66,374.36-14.66,116.17,6.51,228.65,44.71,334.86,90.13,105.84,45.26,207.42,100.11,314.18,143.25,47.49,19.19,96.26,35.99,146.6,45.87,46.82,9.19,93.3,9.27,140.78,7.52,142.74-5.26,280.12-32.44,415.81-76.13,137.3-44.21,272-86.56,416.52-100.01,51.56-4.8,103.28-6.75,155.05-7.05"/>
  <path class="cls-1" d="M.04,1296.46c127.29-.5,254.24-11.7,381.37-16.81,135.42-5.44,271.22-3.89,406.73-3.37,255.35,.98,510.68,5.04,766.03,7.08,338.27,2.69,676.62,.34,1014.9-.72,150.49-.47,300.97-.88,451.46-1.07,219.64-.28,436.11-31.55,654.54-50.95,122.02-10.84,244.91-18.69,367.44-13.47,115.51,4.92,227.18,35.33,335.28,74.86,107.17,39.19,210.86,87.46,318.71,124.82,96.05,33.28,188.78,48.53,290.31,45.11,146.66-4.95,288.54-31.59,429-73.06,142.95-42.21,283.7-83.17,432.97-96.19,52.24-4.56,104.63-6.37,157.06-6.58"/>
  <path class="cls-1" d="M.04,1270.19c123.69-.52,246.95-12.36,370.48-17.28,128.42-5.12,257.25-1.67,385.71,.65,241.8,4.37,483.52,12.43,725.32,17.01,347.73,6.59,695.76,4.53,1043.56,6.93,156.8,1.08,313.59,1.94,470.39,2.29,216.3,.48,430.27-24.49,645.7-40.78,119.86-9.06,240.22-15.71,360.46-12.24,114.96,3.31,225.92,26.01,335.73,59.44,108.52,33.05,214.29,74.64,323.27,106.24,97.46,28.26,191.98,39.8,293.26,36.7,150.67-4.61,297.1-30.64,442.32-69.97,148.62-40.25,295.42-79.83,449.56-92.33,52.94-4.3,106-5.99,159.11-6.11"/>
  <path class="cls-1" d="M.04,1244.1c120.14-.54,239.79-13.01,359.77-17.75,121.53-4.8,243.47,.5,364.97,4.62,228.44,7.75,456.72,19.8,685.18,26.82,189.12,5.8,378.34,4.83,567.52,6.93,168.15,1.87,336.28,4.87,504.42,7.52,162.99,2.57,325.99,4.7,489,5.6,213.05,1.17,424.51-17.55,636.99-30.72,117.7-7.3,235.62-12.78,353.58-11.07,114.48,1.65,224.92,16.96,336.13,44.25,109.88,26.96,217.65,61.92,327.78,87.89,98.72,23.28,194.96,31.28,296.16,28.48,154.66-4.28,305.57-29.63,455.44-66.92,154.19-38.37,306.9-76.54,465.94-88.53,53.62-4.04,107.34-5.62,161.1-5.64"/>
  <path class="cls-1" d="M.04,1218.5c116.78-.56,232.96-13.67,349.57-18.22,114.9-4.48,230.17,2.57,344.92,8.45,215.57,11.05,430.88,27.03,646.55,36.26,189.82,8.12,379.87,6.78,569.8,9.93,176.6,2.92,353.16,7.57,529.74,11.71,168.9,3.96,337.8,7.34,506.74,8.76,209.96,1.76,418.97-10.85,628.59-20.96,228.48-11.02,457.46-23.22,683.4,19.56,111.21,21.06,220.88,49.56,332.18,70.19,99.8,18.5,197.64,23.27,298.9,20.74,158.52-3.96,313.74-28.63,468.04-64,159.57-36.58,317.91-73.37,481.74-84.86,54.24-3.81,108.57-5.27,162.94-5.22"/>
  <path class="cls-1" d="M.04,1193.69c113.68-.58,226.67-14.33,340.19-18.69,108.68-4.17,217.65,4.51,326.02,12.07,203.52,14.2,406.64,33.95,610.37,45.11,190.53,10.44,381.5,8.54,572.23,12.61,184.59,3.94,369.12,10.12,553.67,15.67,174.33,5.24,348.68,9.79,523.08,11.67,207.11,2.23,413.76-4.52,620.73-11.67,225.5-7.8,453.06-24.22,677.34,6.62,112.5,15.47,223.92,37.83,336.38,53.52,100.7,14.05,199.95,16.1,301.41,13.77,162.15-3.73,321.36-27.68,479.77-61.27,164.61-34.91,328.22-70.37,496.59-81.41,54.78-3.59,109.64-4.97,164.53-4.85"/>
  <path class="cls-1" d="M.04,1169.97c110.97-.6,221.14-14.99,331.94-19.16,103-3.88,206.19,6.26,308.7,15.38,192.58,17.14,384.62,40.43,577.58,53.16,191.27,12.62,383.27,9.98,574.84,14.86,191.94,4.89,383.8,12.47,575.68,19.3,383.73,13.65,767.12,19.41,1151.05,11.2,111.69-2.39,223.4-5.05,335.05-8.92,55.77-1.93,111.02-6.86,166.94-6.06,56.65,.81,113.23,4.47,169.64,9.59,113.72,10.32,226.72,27,340.33,38.29,101.43,10.08,201.83,10.02,303.59,7.88,165.41-3.48,328.24-26.84,490.32-58.83,169.21-33.39,337.59-67.6,510.15-78.27,55.2-3.41,110.47-4.71,165.77-4.56"/>
  <path class="cls-1" d="M.04,1147.64c108.74-.62,216.57-15.66,325.14-19.64,97.99-3.59,196.1,7.8,293.4,18.31,183.07,19.79,365.44,46.3,549.12,60.17,192.06,14.51,385.24,10.98,577.7,16.56,198.48,5.75,396.85,14.54,595.24,22.51,385.21,15.46,771.2,24.61,1156.74,21.11,110.04-1,220.2-3.08,330.11-8.98,55.43-2.97,110.36-9.44,165.97-10.49,56.78-1.06,113.59,.43,170.3,3.26,114.83,5.74,229.24,17.35,343.95,24.91,101.96,6.72,203.28,5.4,305.33,3.35,168.22-3.37,334.13-26.18,499.35-56.73,173.23-32.04,345.8-65.12,522.03-75.51,55.48-3.27,111.02-4.53,166.59-4.37"/>
  <path class="cls-1" d="M.04,1127c107.1-.64,213.18-16.33,320.1-20.11,93.78-3.31,187.66,9.08,280.56,20.77,175.32,22.06,349.73,51.37,525.94,65.93,192.94,15.94,387.42,11.44,580.85,17.59,204.02,6.49,407.9,16.3,611.82,25.22,186,8.13,372.07,15.49,558.25,18.03,200.77,2.73,401.48,11.05,602.29,11.45,108.68,.21,217.61-1.55,326.04-9.6,55.06-4.09,109.64-11.47,164.88-13.99,56.88-2.59,113.85-2.91,170.78-1.98,115.82,1.88,231.44,9.15,347.17,13.76,102.3,4.08,204.26,2.53,306.56,.5,170.44-3.39,338.82-25.74,506.53-55.06,176.57-30.88,352.6-62.99,531.89-73.22,55.57-3.17,111.21-4.44,166.87-4.3"/>
  <path class="cls-1" d="M.04,1108.36c106.16-.65,211.17-17.02,317.14-20.59,90.5-3.05,181.18,10.08,270.61,22.67,169.63,23.88,338.14,55.48,508.96,70.2,193.96,16.72,389.84,11.21,584.34,17.83,208.38,7.09,416.61,17.67,624.88,27.33,187.76,8.71,375.6,16.65,563.56,19.04,199.62,2.53,398.93,14.71,598.54,16.97,107.69,1.22,215.74-.52,323-10.87,111.82-10.79,222.11-21.24,334.65-22.35,219.11-2.16,437.92,9.38,657.08,4.87,354.61-7.31,697.65-105.48,1050.88-125.39,55.46-3.13,110.98-4.44,166.52-4.38"/>
  <path class="cls-1" d="M.04,1092.02c106-.67,210.76-17.71,316.57-21.08,88.26-2.81,176.94,10.77,264.01,23.94,166.33,25.16,331.33,58.41,499.15,72.77,92.42,7.91,184.68,8.38,277.34,9.4,103.66,1.14,207.3,4.07,310.9,7.75,211.39,7.51,422.62,18.6,633.89,28.75,188.14,9.04,376.39,17.36,564.76,19.34,199.04,2.09,397.36,17.42,596.32,21.08,107.12,1.97,214.68-.08,321.15-12.9,110.97-13.37,221.41-22.97,333.21-26.01,219.73-5.98,439.47,5.75,659.18,.77,356.7-8.08,702.68-103.46,1058.09-123.71,55.1-3.14,110.26-4.55,165.45-4.63"/>
  <path class="cls-1" d="M.04,1078.25c106.05-.82,210.91-17.56,316.78-20.92,88.15-2.79,176.63,10.73,263.58,23.86,166.22,25.1,331.14,58.11,498.85,72.39,195.38,16.64,392.89,10.26,588.82,17.19,211.49,7.47,422.83,18.53,634.2,28.63,188.12,8.99,376.34,17.29,564.68,19.29,199.05,2.12,397.34,17.48,596.3,21.36,106.83,2.08,214.07-.02,320.22-13.04,110.49-13.56,220.84-22.37,332.14-25.73,219.71-6.64,439.44,5.52,659.09-.08,357.36-9.12,704.74-101.53,1060.89-122.38,54.77-3.21,109.59-4.78,164.45-5.07"/>
  <path class="cls-1" d="M.04,1066.96c106.1-.95,211.12-16.92,317.06-20.26,88.81-2.8,177.76,10.38,265.46,23.14,167.26,24.35,333.34,56.2,501.95,70.4,195.12,16.43,392.2,10.62,587.85,17.33,210.51,7.23,420.86,17.97,631.26,27.75,188.06,8.75,376.23,16.82,564.5,18.99,198.75,2.29,396.86,16.63,595.54,20.35,106.3,1.99,212.97,.03,318.68-12.2,110-12.73,219.84-21.24,330.56-24.51,219.04-6.47,438.16,5.15,657.13-.85,358.72-9.84,708.39-98.27,1065.99-119.23,54.63-3.2,109.32-4.87,164.04-5.33"/>
  <path class="cls-1" d="M.04,1057.84c106.31-1.01,211.65-16.12,317.82-19.37,89.68-2.75,179.4,9.92,268.06,22.15,168.83,23.29,336.63,53.64,506.66,67.48,194.87,15.86,391.48,10.56,586.84,17,209.23,6.9,418.31,17.19,627.44,26.55,187.74,8.4,375.56,16.13,563.49,18.34,198.05,2.33,395.53,15.71,593.51,19.24,105.56,1.88,211.44,.06,316.47-11.39,109.23-11.91,218.29-20.04,328.15-23.17,217.91-6.22,435.93,4.77,653.77-1.3,360.93-10.07,713.84-93.87,1073.78-114.42,54.62-3.12,109.29-4.81,164-5.35"/>
  <path class="cls-1" d="M.04,1050.6c106.65-1.01,212.46-15.19,318.98-18.27,90.74-2.63,181.47,9.37,271.31,20.91,170.87,21.95,340.85,50.54,512.76,63.76,194.63,14.97,390.75,10.15,585.81,16.26,207.7,6.51,415.27,16.24,622.87,25.06,187.18,7.95,374.43,15.25,561.78,17.4,196.98,2.27,393.47,14.72,590.39,18.05,104.62,1.77,209.53,.06,313.7-10.61,108.21-11.09,216.26-18.77,325.03-21.73,216.39-5.9,432.89,4.39,649.22-1.48,363.9-9.87,720.85-88.49,1083.89-108.18,54.72-2.97,109.48-4.62,164.27-5.18"/>
  <path class="cls-1" d="M.04,1044.92c107.11-.95,213.5-14.14,320.5-17.01,91.95-2.46,183.9,8.73,275.08,19.46,173.3,20.39,345.85,46.99,520.02,59.37,194.38,13.82,390,9.45,584.74,15.18,205.96,6.06,411.8,15.13,617.68,23.33,186.42,7.42,372.9,14.2,559.46,16.22,195.61,2.11,390.8,13.68,586.36,16.78,211.54,3.36,420.55-24.63,631.75-30.06,214.54-5.51,429.17,4.01,643.65-1.42,367.52-9.31,729.15-82.29,1095.93-100.75,54.9-2.76,109.84-4.31,164.81-4.85"/>
  <path class="cls-1" d="M.04,1040.52c107.66-.85,214.72-13.01,322.29-15.61,93.29-2.25,186.62,8.04,279.28,17.86,176.05,18.66,351.47,43.07,528.23,54.44,194.12,12.49,389.24,8.52,583.66,13.82,204.05,5.56,408,13.9,611.98,21.41,185.49,6.82,371.04,13.03,556.66,14.84,194.01,1.89,387.64,12.59,581.6,15.46,208.8,3.09,415.41-22.74,623.91-27.73,212.42-5.08,424.9,3.65,637.28-1.18,371.67-8.45,738.48-75.45,1109.54-92.35,55.16-2.51,110.35-3.91,165.57-4.38"/>
  <path class="cls-1" d="M.04,1037.08c108.29-.72,216.08-11.81,324.29-14.11,94.74-2.01,189.57,7.29,283.81,16.13,179.03,16.79,357.56,38.88,537.16,49.1,193.85,11.04,388.48,7.41,582.56,12.24,202.01,5.03,403.94,12.57,605.89,19.34,184.45,6.18,368.94,11.75,553.5,13.3,192.22,1.61,384.1,11.46,576.28,14.09,205.83,2.81,409.82-20.84,615.41-25.36,210.09-4.61,420.22,3.31,630.28-.79,376.25-7.34,748.58-68.12,1124.35-83.21,55.47-2.23,110.97-3.45,166.49-3.81"/>
  <path class="cls-1" d="M.04,1034.3c108.96-.56,217.54-10.56,326.44-12.54,96.27-1.75,192.68,6.5,288.56,14.31,182.17,14.84,363.96,34.51,546.57,43.48,193.56,9.51,387.71,6.19,581.44,10.53,199.88,4.48,399.7,11.18,599.53,17.17,183.32,5.49,366.68,10.41,550.08,11.66,190.3,1.3,380.31,10.32,570.57,12.69,202.73,2.53,403.92-18.95,606.44-22.96,207.62-4.11,415.26,3,622.86-.3,381.14-6.07,759.21-60.46,1139.97-73.57,55.82-1.92,111.67-2.94,167.52-3.18"/>
  <path class="cls-1" d="M.04,1031.89c109.67-.38,219.04-9.28,328.67-10.92,97.85-1.47,195.87,5.69,293.43,12.45,185.41,12.85,370.52,30.04,556.26,37.7,193.26,7.96,386.95,4.91,580.32,8.73,197.71,3.91,395.36,9.75,593.04,14.94,182.14,4.78,364.32,9.03,546.53,9.97,188.31,.97,376.37,9.16,564.65,11.27,199.55,2.24,397.85-17.06,597.24-20.55,205.08-3.59,410.14,2.72,615.21,.24,386.22-4.68,770.11-52.63,1156.04-63.65,56.19-1.61,112.4-2.41,168.61-2.5"/>
  <path class="cls-1" d="M.04,1029.53c110.39-.21,220.55-7.99,330.92-9.3,99.45-1.18,199.08,4.87,298.33,10.58,188.65,10.85,377.09,25.58,565.98,31.89,192.94,6.45,386.18,3.63,579.21,6.92,195.52,3.34,391.01,8.31,586.52,12.71,180.96,4.07,361.95,7.64,542.95,8.26,186.31,.65,372.41,8,558.69,9.85,196.36,1.95,391.75-15.17,587.99-18.14,202.51-3.07,405.01,2.47,607.52,.78,391.36-3.27,781.03-44.79,1172.18-53.69,56.57-1.29,113.14-1.87,169.72-1.82"/>
  <path class="cls-1" d="M.04,1026.93c111.1-.04,222.03-6.72,333.1-7.71,101.03-.9,202.23,4.06,303.14,8.74,191.84,8.9,383.53,21.2,575.53,26.2,192.62,5.01,385.42,2.4,578.09,5.16,193.38,2.77,386.73,6.89,580.09,10.51,179.81,3.36,359.63,6.27,539.47,6.6,184.36,.34,368.55,6.85,552.88,8.45,193.24,1.67,385.75-13.28,578.91-15.73,200-2.54,399.99,2.25,599.99,1.29,396.45-1.89,791.71-37.1,1188.01-43.92,56.92-.98,113.85-1.35,170.78-1.17"/>
  <path class="cls-1" d="M.04,1023.78c111.77,.11,223.42-5.48,335.17-6.18,102.57-.64,205.28,3.27,307.76,6.97,194.89,7.03,389.67,16.99,584.67,20.73,192.28,3.69,384.67,1.28,576.98,3.53,191.3,2.23,382.59,5.52,573.89,8.4,178.72,2.68,357.45,4.95,536.2,5.02,182.52,.06,364.89,5.73,547.39,7.06,190.27,1.39,380-11.39,570.2-13.35,197.61-2.04,395.2,2.03,592.81,1.72,401.35-.62,801.92-29.71,1203.18-34.56,57.25-.69,114.5-.87,171.75-.57"/>
  <path class="cls-1" d="M.04,1019.78c112.38,.23,224.68-4.3,337.05-4.73,104.01-.4,208.13,2.52,312.1,5.31,197.72,5.3,395.39,13.04,593.18,15.63,191.94,2.51,383.93,.33,575.89,2.08,189.35,1.72,378.68,4.24,568.02,6.41,177.74,2.04,355.49,3.73,533.25,3.57,180.84-.16,361.57,4.64,542.39,5.72,187.49,1.12,374.62-9.51,562.08-11,195.39-1.55,390.78,1.81,586.18,2.03,405.94,.45,811.41-22.77,1217.29-25.85,57.52-.44,115.05-.45,172.57-.06"/>
  <path class="cls-1" d="M.04,1014.63c218.34,.61,436.36-3.68,654.73,.38,200.28,3.73,400.52,9.43,600.83,11.02,379.12,3,758.29,2.35,1137.44,5.48,356.24,2.94,712.55,5.07,1068.79,6.73,185,.87,369.77-7.63,554.75-8.7,193.43-1.11,386.85,1.57,580.28,2.16,410.09,1.26,819.92-16.43,1229.98-18.02,57.74-.22,115.47-.11,173.2,.33"/>
  <path class="cls-1" d="M.04,1008.02c219.87,.67,439.61-2.36,659.5,.22,202.47,2.38,404.92,6.25,607.41,7.02,377.19,1.45,754.37,.98,1131.57,3.02,354.44,1.91,708.9,3.26,1063.34,4.47,182.85,.62,365.57-5.76,548.41-6.45,191.77-.73,383.54,1.29,575.31,2.08,413.67,1.71,827.22-10.85,1240.87-11.3,57.86-.06,115.73,.13,173.59,.57"/>
  <path class="cls-1" d="M.04,999.66c425.3,1.18,850.66,3.45,1275.97,3.89,375.48,.38,750.95,.08,1126.43,1.2,353.19,1.06,706.39,1.79,1059.58,2.56,181.11,.4,362.17-3.89,543.28-4.27,190.49-.4,380.98,.95,571.47,1.74,416.55,1.73,833.05-6.18,1249.59-5.91,57.89,.04,115.78,.25,173.67,.62"/>
  <path class="cls-1" d="M.04,989.24c427.44,.79,854.91,1.6,1282.35,1.45,374.05-.13,748.1-.3,1122.15,.15,352.6,.42,705.2,.69,1057.8,1.08,369.51,.4,739-2.17,1108.52-1.08,418.59,1.24,837.18-2.57,1255.77-2.1,57.8,.06,115.61,.22,173.41,.46"/>
  <path class="cls-1" d="M.04,976.45c428.55,.08,857.1,.11,1285.65,.07,372.95-.04,745.91-.05,1118.86-.03,352.76,.02,705.53,.04,1058.29,.06,368.47,.03,736.94-.18,1105.41-.07,419.68,.13,839.36-.15,1259.04-.08,57.58,0,115.17,.03,172.75,.05"/>
</svg>